<svg xmlns="http://www.w3.org/2000/svg" viewBox="0 0 358.4 84"><defs><style>.cls-1{fill:#fff;}.cls-2{fill:#0190ff;}.cls-3{fill:#027acc;}.cls-4{fill:#0389e5;}</style></defs><title>pkijs_logo_white text</title><g id="Слой_2" data-name="Слой 2"><g id="Слой_2-2" data-name="Слой 2"><path class="cls-1" d="M166.18,18.44a20.28,20.28,0,0,1,15.47,6.93,23.74,23.74,0,0,1,6.47,16.82,23.69,23.69,0,0,1-6.47,16.91,20.21,20.21,0,0,1-15.47,6.83q-9.45,0-14.58-6.56V82.66H140v-63h11.6V25Q156.73,18.44,166.18,18.44ZM155.11,51.36a13.05,13.05,0,0,0,17.81,0,12.41,12.41,0,0,0,3.6-9.17,12.13,12.13,0,0,0-3.6-9.09,12.81,12.81,0,0,0-17.81,0,12.3,12.3,0,0,0-3.51,9.09A12.58,12.58,0,0,0,155.11,51.36Z"/><path class="cls-1" d="M221.4,41.92,240,64.67H226.53L210.16,44.26V64.67h-11.6v-63h11.6V39.49L225.63,19.7h13.85Z"/><path class="cls-1" d="M253.79,14.3a6.84,6.84,0,0,1-5-2.11,6.81,6.81,0,0,1-2.11-5,7,7,0,0,1,2.11-5,6.77,6.77,0,0,1,5-2.16,6.87,6.87,0,0,1,5.08,2.16,7,7,0,0,1,2.11,5,6.81,6.81,0,0,1-2.11,5A6.93,6.93,0,0,1,253.79,14.3Zm5.84,50.37H248v-45h11.6Z"/><path class="cls-1" d="M286.89,58.2a7.68,7.68,0,1,1-2.25-5.4A7.33,7.33,0,0,1,286.89,58.2Z"/><path class="cls-1" d="M300.38,65.57V19.7H312V65.57q0,9.9-4.81,14.44t-14.8,3.91V72.77q4.14.27,6.07-1.44T300.38,65.57Zm5.84-51.27a6.93,6.93,0,0,1-5.08-2.11,6.81,6.81,0,0,1-2.11-5,7,7,0,0,1,2.11-5A6.87,6.87,0,0,1,306.22,0a6.77,6.77,0,0,1,5,2.16,7,7,0,0,1,2.11,5,6.81,6.81,0,0,1-2.11,5A6.84,6.84,0,0,1,306.22,14.3Z"/><path class="cls-1" d="M335.19,32.47q0,2.88,8.18,5a40.44,40.44,0,0,1,5.22,1.48,22.8,22.8,0,0,1,4.72,2.43,11,11,0,0,1,3.74,4.19,12.9,12.9,0,0,1,1.35,6,12.44,12.44,0,0,1-5.22,10.71,21.79,21.79,0,0,1-12.86,3.68q-13.86,0-18.89-10.7l10.07-5.67q2.07,5.85,8.82,5.85,6.19,0,6.2-3.87,0-2.88-8.18-4.95A52.85,52.85,0,0,1,333.12,45a25.87,25.87,0,0,1-4.68-2.38,10.51,10.51,0,0,1-3.82-4.05,12.23,12.23,0,0,1-1.3-5.8,12.47,12.47,0,0,1,4.85-10.43,19.27,19.27,0,0,1,12.24-3.87,20.37,20.37,0,0,1,10,2.47A18.14,18.14,0,0,1,357.5,28l-9.9,5.4a7.4,7.4,0,0,0-7.19-4.59,6.4,6.4,0,0,0-3.74,1A3.11,3.11,0,0,0,335.19,32.47Z"/><path class="cls-2" d="M75,10a10,10,0,0,1,5-8.65V0H10a10,10,0,0,0,0,20H80V18.65A10,10,0,0,1,75,10Z"/><path class="cls-3" d="M75,70a10,10,0,0,1,5-8.65V60H10a10,10,0,0,0,0,20H80V78.65A10,10,0,0,1,75,70Z"/><path class="cls-4" d="M80,30H10v1.35a10,10,0,0,1,0,17.3V50H80a10,10,0,0,0,0-20Z"/></g></g></svg>